<?xml version="1.0" encoding="UTF-8"?>
<!DOCTYPE svg PUBLIC "-//W3C//DTD SVG 1.1//EN" "http://www.w3.org/Graphics/SVG/1.1/DTD/svg11.dtd">
<svg xmlns="http://www.w3.org/2000/svg" version="1.1" width="512px" height="512px" style="shape-rendering:geometricPrecision; text-rendering:geometricPrecision; image-rendering:optimizeQuality; fill-rule:evenodd; clip-rule:evenodd" xmlns:xlink="http://www.w3.org/1999/xlink">
<g><path style="opacity:0.977" fill="#6480a7" d="M 254.5,-0.5 C 255.167,-0.5 255.833,-0.5 256.5,-0.5C 280.632,24.132 304.965,48.632 329.5,73C 365.167,73.3333 400.833,73.6667 436.5,74C 437.33,109.762 437.83,145.595 438,181.5C 462.368,206.035 486.868,230.368 511.5,254.5C 511.5,255.167 511.5,255.833 511.5,256.5C 486.868,280.632 462.368,304.965 438,329.5C 437.667,365.167 437.333,400.833 437,436.5C 401.238,437.33 365.405,437.83 329.5,438C 304.965,462.368 280.632,486.868 256.5,511.5C 255.833,511.5 255.167,511.5 254.5,511.5C 230.368,486.868 206.035,462.368 181.5,438C 145.833,437.667 110.167,437.333 74.5,437C 73.6701,401.238 73.1701,365.405 73,329.5C 48.632,304.965 24.132,280.632 -0.5,256.5C -0.5,255.833 -0.5,255.167 -0.5,254.5C 24.132,230.368 48.632,206.035 73,181.5C 73.3333,145.833 73.6667,110.167 74,74.5C 109.762,73.6701 145.595,73.1701 181.5,73C 206.035,48.632 230.368,24.132 254.5,-0.5 Z M 254.5,62.5 C 273.915,80.413 292.915,98.913 311.5,118C 338.498,118.5 365.498,118.667 392.5,118.5C 392.333,145.502 392.5,172.502 393,199.5C 411.681,218.014 430.181,236.681 448.5,255.5C 430.181,274.319 411.681,292.986 393,311.5C 392.5,338.498 392.333,365.498 392.5,392.5C 365.498,392.333 338.498,392.5 311.5,393C 292.986,411.681 274.319,430.181 255.5,448.5C 236.681,430.181 218.014,411.681 199.5,393C 172.502,392.5 145.502,392.333 118.5,392.5C 118.667,365.498 118.5,338.498 118,311.5C 99.3194,292.986 80.8194,274.319 62.5,255.5C 80.8194,236.681 99.3194,218.014 118,199.5C 118.5,172.502 118.667,145.502 118.5,118.5C 145.502,118.667 172.502,118.5 199.5,118C 218.035,99.6319 236.368,81.1319 254.5,62.5 Z"/></g>
<g><path style="opacity:0.988" fill="#6480a7" d="M 254.5,103.5 C 269.914,117.412 284.914,131.912 299.5,147C 320.831,147.5 342.164,147.667 363.5,147.5C 363.333,168.836 363.5,190.169 364,211.5C 378.681,226.014 393.181,240.681 407.5,255.5C 393.181,270.319 378.681,284.986 364,299.5C 363.5,320.831 363.333,342.164 363.5,363.5C 342.164,363.333 320.831,363.5 299.5,364C 284.986,378.681 270.319,393.181 255.5,407.5C 240.681,393.181 226.014,378.681 211.5,364C 190.169,363.5 168.836,363.333 147.5,363.5C 147.667,342.164 147.5,320.831 147,299.5C 132.319,284.986 117.819,270.319 103.5,255.5C 117.819,240.681 132.319,226.014 147,211.5C 147.5,190.169 147.667,168.836 147.5,147.5C 168.836,147.667 190.169,147.5 211.5,147C 226.035,132.632 240.369,118.132 254.5,103.5 Z"/></g>
</svg>
